# Twenty Tons grey box. Map data (c) OpenStreetMap contributors, ODbL.
o Piers
v -16.91 0.00 -24.73
v -18.91 0.00 -24.73
v -18.91 0.00 -22.73
v -16.91 0.00 -22.73
v -16.91 10.00 -24.73
v -18.91 10.00 -24.73
v -18.91 10.00 -22.73
v -16.91 10.00 -22.73
v -20.90 0.00 -54.46
v -22.90 0.00 -54.46
v -22.90 0.00 -52.46
v -20.90 0.00 -52.46
v -20.90 10.00 -54.46
v -22.90 10.00 -54.46
v -22.90 10.00 -52.46
v -20.90 10.00 -52.46
v -23.91 0.00 -84.29
v -25.91 0.00 -84.29
v -25.91 0.00 -82.29
v -23.91 0.00 -82.29
v -23.91 10.00 -84.29
v -25.91 10.00 -84.29
v -25.91 10.00 -82.29
v -23.91 10.00 -82.29
v -25.21 0.00 -114.27
v -27.21 0.00 -114.27
v -27.21 0.00 -112.27
v -25.21 0.00 -112.27
v -25.21 10.00 -114.27
v -27.21 10.00 -114.27
v -27.21 10.00 -112.27
v -25.21 10.00 -112.27
v -25.92 0.00 -144.25
v -27.92 0.00 -144.25
v -27.92 0.00 -142.25
v -25.92 0.00 -142.25
v -25.92 10.00 -144.25
v -27.92 10.00 -144.25
v -27.92 10.00 -142.25
v -25.92 10.00 -142.25
v -25.82 0.00 -174.25
v -27.82 0.00 -174.25
v -27.82 0.00 -172.25
v -25.82 0.00 -172.25
v -25.82 10.00 -174.25
v -27.82 10.00 -174.25
v -27.82 10.00 -172.25
v -25.82 10.00 -172.25
v -25.95 0.00 -204.25
v -27.95 0.00 -204.25
v -27.95 0.00 -202.25
v -25.95 0.00 -202.25
v -25.95 10.00 -204.25
v -27.95 10.00 -204.25
v -27.95 10.00 -202.25
v -25.95 10.00 -202.25
v -26.18 0.00 -234.25
v -28.18 0.00 -234.25
v -28.18 0.00 -232.25
v -26.18 0.00 -232.25
v -26.18 10.00 -234.25
v -28.18 10.00 -234.25
v -28.18 10.00 -232.25
v -26.18 10.00 -232.25
v -26.41 0.00 -264.25
v -28.41 0.00 -264.25
v -28.41 0.00 -262.25
v -26.41 0.00 -262.25
v -26.41 10.00 -264.25
v -28.41 10.00 -264.25
v -28.41 10.00 -262.25
v -26.41 10.00 -262.25
v -26.70 0.00 -294.25
v -28.70 0.00 -294.25
v -28.70 0.00 -292.25
v -26.70 0.00 -292.25
v -26.70 10.00 -294.25
v -28.70 10.00 -294.25
v -28.70 10.00 -292.25
v -26.70 10.00 -292.25
v -27.15 0.00 -324.24
v -29.15 0.00 -324.24
v -29.15 0.00 -322.24
v -27.15 0.00 -322.24
v -27.15 10.00 -324.24
v -29.15 10.00 -324.24
v -29.15 10.00 -322.24
v -27.15 10.00 -322.24
v -27.77 0.00 -354.24
v -29.77 0.00 -354.24
v -29.77 0.00 -352.24
v -27.77 0.00 -352.24
v -27.77 10.00 -354.24
v -29.77 10.00 -354.24
v -29.77 10.00 -352.24
v -27.77 10.00 -352.24
v -28.59 0.00 -384.22
v -30.59 0.00 -384.22
v -30.59 0.00 -382.22
v -28.59 0.00 -382.22
v -28.59 10.00 -384.22
v -30.59 10.00 -384.22
v -30.59 10.00 -382.22
v -28.59 10.00 -382.22
v -30.01 0.00 -414.19
v -32.01 0.00 -414.19
v -32.01 0.00 -412.19
v -30.01 0.00 -412.19
v -30.01 10.00 -414.19
v -32.01 10.00 -414.19
v -32.01 10.00 -412.19
v -30.01 10.00 -412.19
v -31.44 0.00 -444.16
v -33.44 0.00 -444.16
v -33.44 0.00 -442.16
v -31.44 0.00 -442.16
v -31.44 10.00 -444.16
v -33.44 10.00 -444.16
v -33.44 10.00 -442.16
v -31.44 10.00 -442.16
v -33.08 0.00 -474.11
v -35.08 0.00 -474.11
v -35.08 0.00 -472.11
v -33.08 0.00 -472.11
v -33.08 10.00 -474.11
v -35.08 10.00 -474.11
v -35.08 10.00 -472.11
v -33.08 10.00 -472.11
v -34.65 0.00 -504.07
v -36.65 0.00 -504.07
v -36.65 0.00 -502.07
v -34.65 0.00 -502.07
v -34.65 10.00 -504.07
v -36.65 10.00 -504.07
v -36.65 10.00 -502.07
v -34.65 10.00 -502.07
v -36.21 0.00 -534.03
v -38.21 0.00 -534.03
v -38.21 0.00 -532.03
v -36.21 0.00 -532.03
v -36.21 10.00 -534.03
v -38.21 10.00 -534.03
v -38.21 10.00 -532.03
v -36.21 10.00 -532.03
v -37.78 0.00 -563.99
v -39.78 0.00 -563.99
v -39.78 0.00 -561.99
v -37.78 0.00 -561.99
v -37.78 10.00 -563.99
v -39.78 10.00 -563.99
v -39.78 10.00 -561.99
v -37.78 10.00 -561.99
v -39.89 0.00 -593.91
v -41.89 0.00 -593.91
v -41.89 0.00 -591.91
v -39.89 0.00 -591.91
v -39.89 10.00 -593.91
v -41.89 10.00 -593.91
v -41.89 10.00 -591.91
v -39.89 10.00 -591.91
v -43.51 0.00 -623.69
v -45.51 0.00 -623.69
v -45.51 0.00 -621.69
v -43.51 0.00 -621.69
v -43.51 10.00 -623.69
v -45.51 10.00 -623.69
v -45.51 10.00 -621.69
v -43.51 10.00 -621.69
v -48.06 0.00 -653.34
v -50.06 0.00 -653.34
v -50.06 0.00 -651.34
v -48.06 0.00 -651.34
v -48.06 10.00 -653.34
v -50.06 10.00 -653.34
v -50.06 10.00 -651.34
v -48.06 10.00 -651.34
v -54.25 0.00 -682.69
v -56.25 0.00 -682.69
v -56.25 0.00 -680.69
v -54.25 0.00 -680.69
v -54.25 10.00 -682.69
v -56.25 10.00 -682.69
v -56.25 10.00 -680.69
v -54.25 10.00 -680.69
v -60.57 0.00 -712.02
v -62.57 0.00 -712.02
v -62.57 0.00 -710.02
v -60.57 0.00 -710.02
v -60.57 10.00 -712.02
v -62.57 10.00 -712.02
v -62.57 10.00 -710.02
v -60.57 10.00 -710.02
v -66.75 0.00 -741.38
v -68.75 0.00 -741.38
v -68.75 0.00 -739.38
v -66.75 0.00 -739.38
v -66.75 10.00 -741.38
v -68.75 10.00 -741.38
v -68.75 10.00 -739.38
v -66.75 10.00 -739.38
v -73.25 0.00 -770.66
v -75.25 0.00 -770.66
v -75.25 0.00 -768.66
v -73.25 0.00 -768.66
v -73.25 10.00 -770.66
v -75.25 10.00 -770.66
v -75.25 10.00 -768.66
v -73.25 10.00 -768.66
v -80.73 0.00 -799.71
v -82.73 0.00 -799.71
v -82.73 0.00 -797.71
v -80.73 0.00 -797.71
v -80.73 10.00 -799.71
v -82.73 10.00 -799.71
v -82.73 10.00 -797.71
v -80.73 10.00 -797.71
v -88.28 0.00 -828.75
v -90.28 0.00 -828.75
v -90.28 0.00 -826.75
v -88.28 0.00 -826.75
v -88.28 10.00 -828.75
v -90.28 10.00 -828.75
v -90.28 10.00 -826.75
v -88.28 10.00 -826.75
v -95.84 0.00 -857.78
v -97.84 0.00 -857.78
v -97.84 0.00 -855.78
v -95.84 0.00 -855.78
v -95.84 10.00 -857.78
v -97.84 10.00 -857.78
v -97.84 10.00 -855.78
v -95.84 10.00 -855.78
v -103.86 0.00 -886.69
v -105.86 0.00 -886.69
v -105.86 0.00 -884.69
v -103.86 0.00 -884.69
v -103.86 10.00 -886.69
v -105.86 10.00 -886.69
v -105.86 10.00 -884.69
v -103.86 10.00 -884.69
v -111.77 0.00 -915.63
v -113.77 0.00 -915.63
v -113.77 0.00 -913.63
v -111.77 0.00 -913.63
v -111.77 10.00 -915.63
v -113.77 10.00 -915.63
v -113.77 10.00 -913.63
v -111.77 10.00 -913.63
v -119.61 0.00 -944.58
v -121.61 0.00 -944.58
v -121.61 0.00 -942.58
v -119.61 0.00 -942.58
v -119.61 10.00 -944.58
v -121.61 10.00 -944.58
v -121.61 10.00 -942.58
v -119.61 10.00 -942.58
v -127.46 0.00 -973.54
v -129.46 0.00 -973.54
v -129.46 0.00 -971.54
v -127.46 0.00 -971.54
v -127.46 10.00 -973.54
v -129.46 10.00 -973.54
v -129.46 10.00 -971.54
v -127.46 10.00 -971.54
v -134.97 0.00 -1002.58
v -136.97 0.00 -1002.58
v -136.97 0.00 -1000.58
v -134.97 0.00 -1000.58
v -134.97 10.00 -1002.58
v -136.97 10.00 -1002.58
v -136.97 10.00 -1000.58
v -134.97 10.00 -1000.58
v -142.16 0.00 -1031.71
v -144.16 0.00 -1031.71
v -144.16 0.00 -1029.71
v -142.16 0.00 -1029.71
v -142.16 10.00 -1031.71
v -144.16 10.00 -1031.71
v -144.16 10.00 -1029.71
v -142.16 10.00 -1029.71
v -149.35 0.00 -1060.83
v -151.35 0.00 -1060.83
v -151.35 0.00 -1058.83
v -149.35 0.00 -1058.83
v -149.35 10.00 -1060.83
v -151.35 10.00 -1060.83
v -151.35 10.00 -1058.83
v -149.35 10.00 -1058.83
v -156.54 0.00 -1089.96
v -158.54 0.00 -1089.96
v -158.54 0.00 -1087.96
v -156.54 0.00 -1087.96
v -156.54 10.00 -1089.96
v -158.54 10.00 -1089.96
v -158.54 10.00 -1087.96
v -156.54 10.00 -1087.96
v -163.72 0.00 -1119.08
v -165.72 0.00 -1119.08
v -165.72 0.00 -1117.08
v -163.72 0.00 -1117.08
v -163.72 10.00 -1119.08
v -165.72 10.00 -1119.08
v -165.72 10.00 -1117.08
v -163.72 10.00 -1117.08
v -170.91 0.00 -1148.21
v -172.91 0.00 -1148.21
v -172.91 0.00 -1146.21
v -170.91 0.00 -1146.21
v -170.91 10.00 -1148.21
v -172.91 10.00 -1148.21
v -172.91 10.00 -1146.21
v -170.91 10.00 -1146.21
v -178.10 0.00 -1177.34
v -180.10 0.00 -1177.34
v -180.10 0.00 -1175.34
v -178.10 0.00 -1175.34
v -178.10 10.00 -1177.34
v -180.10 10.00 -1177.34
v -180.10 10.00 -1175.34
v -178.10 10.00 -1175.34
v -185.29 0.00 -1206.46
v -187.29 0.00 -1206.46
v -187.29 0.00 -1204.46
v -185.29 0.00 -1204.46
v -185.29 10.00 -1206.46
v -187.29 10.00 -1206.46
v -187.29 10.00 -1204.46
v -185.29 10.00 -1204.46
v -192.48 0.00 -1235.59
v -194.48 0.00 -1235.59
v -194.48 0.00 -1233.59
v -192.48 0.00 -1233.59
v -192.48 10.00 -1235.59
v -194.48 10.00 -1235.59
v -194.48 10.00 -1233.59
v -192.48 10.00 -1233.59
v -199.67 0.00 -1264.71
v -201.67 0.00 -1264.71
v -201.67 0.00 -1262.71
v -199.67 0.00 -1262.71
v -199.67 10.00 -1264.71
v -201.67 10.00 -1264.71
v -201.67 10.00 -1262.71
v -199.67 10.00 -1262.71
v -206.86 0.00 -1293.84
v -208.86 0.00 -1293.84
v -208.86 0.00 -1291.84
v -206.86 0.00 -1291.84
v -206.86 10.00 -1293.84
v -208.86 10.00 -1293.84
v -208.86 10.00 -1291.84
v -206.86 10.00 -1291.84
v -214.05 0.00 -1322.96
v -216.05 0.00 -1322.96
v -216.05 0.00 -1320.96
v -214.05 0.00 -1320.96
v -214.05 10.00 -1322.96
v -216.05 10.00 -1322.96
v -216.05 10.00 -1320.96
v -214.05 10.00 -1320.96
v -221.25 0.00 -1352.09
v -223.25 0.00 -1352.09
v -223.25 0.00 -1350.09
v -221.25 0.00 -1350.09
v -221.25 10.00 -1352.09
v -223.25 10.00 -1352.09
v -223.25 10.00 -1350.09
v -221.25 10.00 -1350.09
v -228.49 0.00 -1381.20
v -230.49 0.00 -1381.20
v -230.49 0.00 -1379.20
v -228.49 0.00 -1379.20
v -228.49 10.00 -1381.20
v -230.49 10.00 -1381.20
v -230.49 10.00 -1379.20
v -228.49 10.00 -1379.20
v -235.72 0.00 -1410.32
v -237.72 0.00 -1410.32
v -237.72 0.00 -1408.32
v -235.72 0.00 -1408.32
v -235.72 10.00 -1410.32
v -237.72 10.00 -1410.32
v -237.72 10.00 -1408.32
v -235.72 10.00 -1408.32
v -243.04 0.00 -1439.41
v -245.04 0.00 -1439.41
v -245.04 0.00 -1437.41
v -243.04 0.00 -1437.41
v -243.04 10.00 -1439.41
v -245.04 10.00 -1439.41
v -245.04 10.00 -1437.41
v -243.04 10.00 -1437.41
v -250.30 0.00 -1468.52
v -252.30 0.00 -1468.52
v -252.30 0.00 -1466.52
v -250.30 0.00 -1466.52
v -250.30 10.00 -1468.52
v -252.30 10.00 -1468.52
v -252.30 10.00 -1466.52
v -250.30 10.00 -1466.52
v -257.49 0.00 -1497.64
v -259.49 0.00 -1497.64
v -259.49 0.00 -1495.64
v -257.49 0.00 -1495.64
v -257.49 10.00 -1497.64
v -259.49 10.00 -1497.64
v -259.49 10.00 -1495.64
v -257.49 10.00 -1495.64
v -264.69 0.00 -1526.77
v -266.69 0.00 -1526.77
v -266.69 0.00 -1524.77
v -264.69 0.00 -1524.77
v -264.69 10.00 -1526.77
v -266.69 10.00 -1526.77
v -266.69 10.00 -1524.77
v -264.69 10.00 -1524.77
v -271.88 0.00 -1555.89
v -273.88 0.00 -1555.89
v -273.88 0.00 -1553.89
v -271.88 0.00 -1553.89
v -271.88 10.00 -1555.89
v -273.88 10.00 -1555.89
v -273.88 10.00 -1553.89
v -271.88 10.00 -1553.89
v -279.06 0.00 -1585.02
v -281.06 0.00 -1585.02
v -281.06 0.00 -1583.02
v -279.06 0.00 -1583.02
v -279.06 10.00 -1585.02
v -281.06 10.00 -1585.02
v -281.06 10.00 -1583.02
v -279.06 10.00 -1583.02
v -286.17 0.00 -1614.17
v -288.17 0.00 -1614.17
v -288.17 0.00 -1612.17
v -286.17 0.00 -1612.17
v -286.17 10.00 -1614.17
v -288.17 10.00 -1614.17
v -288.17 10.00 -1612.17
v -286.17 10.00 -1612.17
v -293.92 0.00 -1643.15
v -295.92 0.00 -1643.15
v -295.92 0.00 -1641.15
v -293.92 0.00 -1641.15
v -293.92 10.00 -1643.15
v -295.92 10.00 -1643.15
v -295.92 10.00 -1641.15
v -293.92 10.00 -1641.15
v -302.24 0.00 -1671.97
v -304.24 0.00 -1671.97
v -304.24 0.00 -1669.97
v -302.24 0.00 -1669.97
v -302.24 10.00 -1671.97
v -304.24 10.00 -1671.97
v -304.24 10.00 -1669.97
v -302.24 10.00 -1669.97
v -309.88 0.00 -1700.98
v -311.88 0.00 -1700.98
v -311.88 0.00 -1698.98
v -309.88 0.00 -1698.98
v -309.88 10.00 -1700.98
v -311.88 10.00 -1700.98
v -311.88 10.00 -1698.98
v -309.88 10.00 -1698.98
v -316.30 0.00 -1730.28
v -318.30 0.00 -1730.28
v -318.30 0.00 -1728.28
v -316.30 0.00 -1728.28
v -316.30 10.00 -1730.28
v -318.30 10.00 -1730.28
v -318.30 10.00 -1728.28
v -316.30 10.00 -1728.28
v -322.80 0.00 -1759.56
v -324.80 0.00 -1759.56
v -324.80 0.00 -1757.56
v -322.80 0.00 -1757.56
v -322.80 10.00 -1759.56
v -324.80 10.00 -1759.56
v -324.80 10.00 -1757.56
v -322.80 10.00 -1757.56
v -330.14 0.00 -1788.65
v -332.14 0.00 -1788.65
v -332.14 0.00 -1786.65
v -330.14 0.00 -1786.65
v -330.14 10.00 -1788.65
v -332.14 10.00 -1788.65
v -332.14 10.00 -1786.65
v -330.14 10.00 -1786.65
v -337.47 0.00 -1817.74
v -339.47 0.00 -1817.74
v -339.47 0.00 -1815.74
v -337.47 0.00 -1815.74
v -337.47 10.00 -1817.74
v -339.47 10.00 -1817.74
v -339.47 10.00 -1815.74
v -337.47 10.00 -1815.74
v -344.94 0.00 -1846.79
v -346.94 0.00 -1846.79
v -346.94 0.00 -1844.79
v -344.94 0.00 -1844.79
v -344.94 10.00 -1846.79
v -346.94 10.00 -1846.79
v -346.94 10.00 -1844.79
v -344.94 10.00 -1844.79
v -352.65 0.00 -1875.79
v -354.65 0.00 -1875.79
v -354.65 0.00 -1873.79
v -352.65 0.00 -1873.79
v -352.65 10.00 -1875.79
v -354.65 10.00 -1875.79
v -354.65 10.00 -1873.79
v -352.65 10.00 -1873.79
v -360.36 0.00 -1904.78
v -362.36 0.00 -1904.78
v -362.36 0.00 -1902.78
v -360.36 0.00 -1902.78
v -360.36 10.00 -1904.78
v -362.36 10.00 -1904.78
v -362.36 10.00 -1902.78
v -360.36 10.00 -1902.78
v -367.96 0.00 -1933.80
v -369.96 0.00 -1933.80
v -369.96 0.00 -1931.80
v -367.96 0.00 -1931.80
v -367.96 10.00 -1933.80
v -369.96 10.00 -1933.80
v -369.96 10.00 -1931.80
v -367.96 10.00 -1931.80
v -375.51 0.00 -1962.83
v -377.51 0.00 -1962.83
v -377.51 0.00 -1960.83
v -375.51 0.00 -1960.83
v -375.51 10.00 -1962.83
v -377.51 10.00 -1962.83
v -377.51 10.00 -1960.83
v -375.51 10.00 -1960.83
v -383.18 0.00 -1991.84
v -385.18 0.00 -1991.84
v -385.18 0.00 -1989.84
v -383.18 0.00 -1989.84
v -383.18 10.00 -1991.84
v -385.18 10.00 -1991.84
v -385.18 10.00 -1989.84
v -383.18 10.00 -1989.84
v -390.29 0.00 -2020.98
v -392.29 0.00 -2020.98
v -392.29 0.00 -2018.98
v -390.29 0.00 -2018.98
v -390.29 10.00 -2020.98
v -392.29 10.00 -2020.98
v -392.29 10.00 -2018.98
v -390.29 10.00 -2018.98
v -397.35 0.00 -2050.14
v -399.35 0.00 -2050.14
v -399.35 0.00 -2048.14
v -397.35 0.00 -2048.14
v -397.35 10.00 -2050.14
v -399.35 10.00 -2050.14
v -399.35 10.00 -2048.14
v -397.35 10.00 -2048.14
v -404.68 0.00 -2079.23
v -406.68 0.00 -2079.23
v -406.68 0.00 -2077.23
v -404.68 0.00 -2077.23
v -404.68 10.00 -2079.23
v -406.68 10.00 -2079.23
v -406.68 10.00 -2077.23
v -404.68 10.00 -2077.23
v -412.12 0.00 -2108.29
v -414.12 0.00 -2108.29
v -414.12 0.00 -2106.29
v -412.12 0.00 -2106.29
v -412.12 10.00 -2108.29
v -414.12 10.00 -2108.29
v -414.12 10.00 -2106.29
v -412.12 10.00 -2106.29
v -419.51 0.00 -2137.37
v -421.51 0.00 -2137.37
v -421.51 0.00 -2135.37
v -419.51 0.00 -2135.37
v -419.51 10.00 -2137.37
v -421.51 10.00 -2137.37
v -421.51 10.00 -2135.37
v -419.51 10.00 -2135.37
v -426.65 0.00 -2166.51
v -428.65 0.00 -2166.51
v -428.65 0.00 -2164.51
v -426.65 0.00 -2164.51
v -426.65 10.00 -2166.51
v -428.65 10.00 -2166.51
v -428.65 10.00 -2164.51
v -426.65 10.00 -2164.51
v -434.07 0.00 -2195.57
v -436.07 0.00 -2195.57
v -436.07 0.00 -2193.57
v -434.07 0.00 -2193.57
v -434.07 10.00 -2195.57
v -436.07 10.00 -2195.57
v -436.07 10.00 -2193.57
v -434.07 10.00 -2193.57
v -441.63 0.00 -2224.60
v -443.63 0.00 -2224.60
v -443.63 0.00 -2222.60
v -441.63 0.00 -2222.60
v -441.63 10.00 -2224.60
v -443.63 10.00 -2224.60
v -443.63 10.00 -2222.60
v -441.63 10.00 -2222.60
v -449.19 0.00 -2253.64
v -451.19 0.00 -2253.64
v -451.19 0.00 -2251.64
v -449.19 0.00 -2251.64
v -449.19 10.00 -2253.64
v -451.19 10.00 -2253.64
v -451.19 10.00 -2251.64
v -449.19 10.00 -2251.64
v -456.94 0.00 -2282.62
v -458.94 0.00 -2282.62
v -458.94 0.00 -2280.62
v -456.94 0.00 -2280.62
v -456.94 10.00 -2282.62
v -458.94 10.00 -2282.62
v -458.94 10.00 -2280.62
v -456.94 10.00 -2280.62
v -470.48 0.00 -2305.79
v -472.48 0.00 -2305.79
v -472.48 0.00 -2303.79
v -470.48 0.00 -2303.79
v -470.48 10.00 -2305.79
v -472.48 10.00 -2305.79
v -472.48 10.00 -2303.79
v -470.48 10.00 -2303.79
v -461.36 0.00 -2295.36
v -463.36 0.00 -2295.36
v -463.36 0.00 -2293.36
v -461.36 0.00 -2293.36
v -461.36 10.00 -2295.36
v -463.36 10.00 -2295.36
v -463.36 10.00 -2293.36
v -461.36 10.00 -2293.36
v -450.84 0.00 -2320.57
v -452.84 0.00 -2320.57
v -452.84 0.00 -2318.57
v -450.84 0.00 -2318.57
v -450.84 10.00 -2320.57
v -452.84 10.00 -2320.57
v -452.84 10.00 -2318.57
v -450.84 10.00 -2318.57
v -475.00 0.00 -2332.55
v -477.00 0.00 -2332.55
v -477.00 0.00 -2330.55
v -475.00 0.00 -2330.55
v -475.00 10.00 -2332.55
v -477.00 10.00 -2332.55
v -477.00 10.00 -2330.55
v -475.00 10.00 -2330.55
v -486.19 0.00 -2310.48
v -488.19 0.00 -2310.48
v -488.19 0.00 -2308.48
v -486.19 0.00 -2308.48
v -486.19 10.00 -2310.48
v -488.19 10.00 -2310.48
v -488.19 10.00 -2308.48
v -486.19 10.00 -2308.48
v -469.29 0.00 -2319.65
v -471.29 0.00 -2319.65
v -471.29 0.00 -2317.65
v -469.29 0.00 -2317.65
v -469.29 10.00 -2319.65
v -471.29 10.00 -2319.65
v -471.29 10.00 -2317.65
v -469.29 10.00 -2317.65
v -476.25 0.00 -2348.71
v -478.25 0.00 -2348.71
v -478.25 0.00 -2346.71
v -476.25 0.00 -2346.71
v -476.25 10.00 -2348.71
v -478.25 10.00 -2348.71
v -478.25 10.00 -2346.71
v -476.25 10.00 -2346.71
v -485.69 0.00 -2377.19
v -487.69 0.00 -2377.19
v -487.69 0.00 -2375.19
v -485.69 0.00 -2375.19
v -485.69 10.00 -2377.19
v -487.69 10.00 -2377.19
v -487.69 10.00 -2375.19
v -485.69 10.00 -2375.19
v -496.05 0.00 -2405.34
v -498.05 0.00 -2405.34
v -498.05 0.00 -2403.34
v -496.05 0.00 -2403.34
v -496.05 10.00 -2405.34
v -498.05 10.00 -2405.34
v -498.05 10.00 -2403.34
v -496.05 10.00 -2403.34
v -507.16 0.00 -2433.20
v -509.16 0.00 -2433.20
v -509.16 0.00 -2431.20
v -507.16 0.00 -2431.20
v -507.16 10.00 -2433.20
v -509.16 10.00 -2433.20
v -509.16 10.00 -2431.20
v -507.16 10.00 -2431.20
v -518.79 0.00 -2460.86
v -520.79 0.00 -2460.86
v -520.79 0.00 -2458.86
v -518.79 0.00 -2458.86
v -518.79 10.00 -2460.86
v -520.79 10.00 -2460.86
v -520.79 10.00 -2458.86
v -518.79 10.00 -2458.86
v -530.40 0.00 -2488.52
v -532.40 0.00 -2488.52
v -532.40 0.00 -2486.52
v -530.40 0.00 -2486.52
v -530.40 10.00 -2488.52
v -532.40 10.00 -2488.52
v -532.40 10.00 -2486.52
v -530.40 10.00 -2486.52
v -541.87 0.00 -2516.24
v -543.87 0.00 -2516.24
v -543.87 0.00 -2514.24
v -541.87 0.00 -2514.24
v -541.87 10.00 -2516.24
v -543.87 10.00 -2516.24
v -543.87 10.00 -2514.24
v -541.87 10.00 -2514.24
v -553.52 0.00 -2543.88
v -555.52 0.00 -2543.88
v -555.52 0.00 -2541.88
v -553.52 0.00 -2541.88
v -553.52 10.00 -2543.88
v -555.52 10.00 -2543.88
v -555.52 10.00 -2541.88
v -553.52 10.00 -2541.88
v -565.73 0.00 -2571.28
v -567.73 0.00 -2571.28
v -567.73 0.00 -2569.28
v -565.73 0.00 -2569.28
v -565.73 10.00 -2571.28
v -567.73 10.00 -2571.28
v -567.73 10.00 -2569.28
v -565.73 10.00 -2569.28
v -578.06 0.00 -2598.63
v -580.06 0.00 -2598.63
v -580.06 0.00 -2596.63
v -578.06 0.00 -2596.63
v -578.06 10.00 -2598.63
v -580.06 10.00 -2598.63
v -580.06 10.00 -2596.63
v -578.06 10.00 -2596.63
v -590.36 0.00 -2626.00
v -592.36 0.00 -2626.00
v -592.36 0.00 -2624.00
v -590.36 0.00 -2624.00
v -590.36 10.00 -2626.00
v -592.36 10.00 -2626.00
v -592.36 10.00 -2624.00
v -590.36 10.00 -2624.00
v -602.49 0.00 -2653.43
v -604.49 0.00 -2653.43
v -604.49 0.00 -2651.43
v -602.49 0.00 -2651.43
v -602.49 10.00 -2653.43
v -604.49 10.00 -2653.43
v -604.49 10.00 -2651.43
v -602.49 10.00 -2651.43
v -614.21 0.00 -2681.05
v -616.21 0.00 -2681.05
v -616.21 0.00 -2679.05
v -614.21 0.00 -2679.05
v -614.21 10.00 -2681.05
v -616.21 10.00 -2681.05
v -616.21 10.00 -2679.05
v -614.21 10.00 -2679.05
v -625.39 0.00 -2708.88
v -627.39 0.00 -2708.88
v -627.39 0.00 -2706.88
v -625.39 0.00 -2706.88
v -625.39 10.00 -2708.88
v -627.39 10.00 -2708.88
v -627.39 10.00 -2706.88
v -625.39 10.00 -2706.88
v -636.40 0.00 -2736.79
v -638.40 0.00 -2736.79
v -638.40 0.00 -2734.79
v -636.40 0.00 -2734.79
v -636.40 10.00 -2736.79
v -638.40 10.00 -2736.79
v -638.40 10.00 -2734.79
v -636.40 10.00 -2734.79
v -647.70 0.00 -2764.58
v -649.70 0.00 -2764.58
v -649.70 0.00 -2762.58
v -647.70 0.00 -2762.58
v -647.70 10.00 -2764.58
v -649.70 10.00 -2764.58
v -649.70 10.00 -2762.58
v -647.70 10.00 -2762.58
v -659.07 0.00 -2792.34
v -661.07 0.00 -2792.34
v -661.07 0.00 -2790.34
v -659.07 0.00 -2790.34
v -659.07 10.00 -2792.34
v -661.07 10.00 -2792.34
v -661.07 10.00 -2790.34
v -659.07 10.00 -2790.34
v -670.45 0.00 -2820.10
v -672.45 0.00 -2820.10
v -672.45 0.00 -2818.10
v -670.45 0.00 -2818.10
v -670.45 10.00 -2820.10
v -672.45 10.00 -2820.10
v -672.45 10.00 -2818.10
v -670.45 10.00 -2818.10
v -681.63 0.00 -2847.94
v -683.63 0.00 -2847.94
v -683.63 0.00 -2845.94
v -681.63 0.00 -2845.94
v -681.63 10.00 -2847.94
v -683.63 10.00 -2847.94
v -683.63 10.00 -2845.94
v -681.63 10.00 -2845.94
v -692.73 0.00 -2875.81
v -694.73 0.00 -2875.81
v -694.73 0.00 -2873.81
v -692.73 0.00 -2873.81
v -692.73 10.00 -2875.81
v -694.73 10.00 -2875.81
v -694.73 10.00 -2873.81
v -692.73 10.00 -2873.81
v -703.98 0.00 -2903.62
v -705.98 0.00 -2903.62
v -705.98 0.00 -2901.62
v -703.98 0.00 -2901.62
v -703.98 10.00 -2903.62
v -705.98 10.00 -2903.62
v -705.98 10.00 -2901.62
v -703.98 10.00 -2901.62
v -715.35 0.00 -2931.38
v -717.35 0.00 -2931.38
v -717.35 0.00 -2929.38
v -715.35 0.00 -2929.38
v -715.35 10.00 -2931.38
v -717.35 10.00 -2931.38
v -717.35 10.00 -2929.38
v -715.35 10.00 -2929.38
v -726.67 0.00 -2959.17
v -728.67 0.00 -2959.17
v -728.67 0.00 -2957.17
v -726.67 0.00 -2957.17
v -726.67 10.00 -2959.17
v -728.67 10.00 -2959.17
v -728.67 10.00 -2957.17
v -726.67 10.00 -2957.17
v -738.00 0.00 -2986.95
v -740.00 0.00 -2986.95
v -740.00 0.00 -2984.95
v -738.00 0.00 -2984.95
v -738.00 10.00 -2986.95
v -740.00 10.00 -2986.95
v -740.00 10.00 -2984.95
v -738.00 10.00 -2984.95
v -749.33 0.00 -3014.72
v -751.33 0.00 -3014.72
v -751.33 0.00 -3012.72
v -749.33 0.00 -3012.72
v -749.33 10.00 -3014.72
v -751.33 10.00 -3014.72
v -751.33 10.00 -3012.72
v -749.33 10.00 -3012.72
v -753.62 0.00 -3039.49
v -755.62 0.00 -3039.49
v -755.62 0.00 -3037.49
v -753.62 0.00 -3037.49
v -753.62 10.00 -3039.49
v -755.62 10.00 -3039.49
v -755.62 10.00 -3037.49
v -753.62 10.00 -3037.49
f 1 5 6 2
f 2 6 7 3
f 3 7 8 4
f 4 8 5 1
f 9 13 14 10
f 10 14 15 11
f 11 15 16 12
f 12 16 13 9
f 17 21 22 18
f 18 22 23 19
f 19 23 24 20
f 20 24 21 17
f 25 29 30 26
f 26 30 31 27
f 27 31 32 28
f 28 32 29 25
f 33 37 38 34
f 34 38 39 35
f 35 39 40 36
f 36 40 37 33
f 41 45 46 42
f 42 46 47 43
f 43 47 48 44
f 44 48 45 41
f 49 53 54 50
f 50 54 55 51
f 51 55 56 52
f 52 56 53 49
f 57 61 62 58
f 58 62 63 59
f 59 63 64 60
f 60 64 61 57
f 65 69 70 66
f 66 70 71 67
f 67 71 72 68
f 68 72 69 65
f 73 77 78 74
f 74 78 79 75
f 75 79 80 76
f 76 80 77 73
f 81 85 86 82
f 82 86 87 83
f 83 87 88 84
f 84 88 85 81
f 89 93 94 90
f 90 94 95 91
f 91 95 96 92
f 92 96 93 89
f 97 101 102 98
f 98 102 103 99
f 99 103 104 100
f 100 104 101 97
f 105 109 110 106
f 106 110 111 107
f 107 111 112 108
f 108 112 109 105
f 113 117 118 114
f 114 118 119 115
f 115 119 120 116
f 116 120 117 113
f 121 125 126 122
f 122 126 127 123
f 123 127 128 124
f 124 128 125 121
f 129 133 134 130
f 130 134 135 131
f 131 135 136 132
f 132 136 133 129
f 137 141 142 138
f 138 142 143 139
f 139 143 144 140
f 140 144 141 137
f 145 149 150 146
f 146 150 151 147
f 147 151 152 148
f 148 152 149 145
f 153 157 158 154
f 154 158 159 155
f 155 159 160 156
f 156 160 157 153
f 161 165 166 162
f 162 166 167 163
f 163 167 168 164
f 164 168 165 161
f 169 173 174 170
f 170 174 175 171
f 171 175 176 172
f 172 176 173 169
f 177 181 182 178
f 178 182 183 179
f 179 183 184 180
f 180 184 181 177
f 185 189 190 186
f 186 190 191 187
f 187 191 192 188
f 188 192 189 185
f 193 197 198 194
f 194 198 199 195
f 195 199 200 196
f 196 200 197 193
f 201 205 206 202
f 202 206 207 203
f 203 207 208 204
f 204 208 205 201
f 209 213 214 210
f 210 214 215 211
f 211 215 216 212
f 212 216 213 209
f 217 221 222 218
f 218 222 223 219
f 219 223 224 220
f 220 224 221 217
f 225 229 230 226
f 226 230 231 227
f 227 231 232 228
f 228 232 229 225
f 233 237 238 234
f 234 238 239 235
f 235 239 240 236
f 236 240 237 233
f 241 245 246 242
f 242 246 247 243
f 243 247 248 244
f 244 248 245 241
f 249 253 254 250
f 250 254 255 251
f 251 255 256 252
f 252 256 253 249
f 257 261 262 258
f 258 262 263 259
f 259 263 264 260
f 260 264 261 257
f 265 269 270 266
f 266 270 271 267
f 267 271 272 268
f 268 272 269 265
f 273 277 278 274
f 274 278 279 275
f 275 279 280 276
f 276 280 277 273
f 281 285 286 282
f 282 286 287 283
f 283 287 288 284
f 284 288 285 281
f 289 293 294 290
f 290 294 295 291
f 291 295 296 292
f 292 296 293 289
f 297 301 302 298
f 298 302 303 299
f 299 303 304 300
f 300 304 301 297
f 305 309 310 306
f 306 310 311 307
f 307 311 312 308
f 308 312 309 305
f 313 317 318 314
f 314 318 319 315
f 315 319 320 316
f 316 320 317 313
f 321 325 326 322
f 322 326 327 323
f 323 327 328 324
f 324 328 325 321
f 329 333 334 330
f 330 334 335 331
f 331 335 336 332
f 332 336 333 329
f 337 341 342 338
f 338 342 343 339
f 339 343 344 340
f 340 344 341 337
f 345 349 350 346
f 346 350 351 347
f 347 351 352 348
f 348 352 349 345
f 353 357 358 354
f 354 358 359 355
f 355 359 360 356
f 356 360 357 353
f 361 365 366 362
f 362 366 367 363
f 363 367 368 364
f 364 368 365 361
f 369 373 374 370
f 370 374 375 371
f 371 375 376 372
f 372 376 373 369
f 377 381 382 378
f 378 382 383 379
f 379 383 384 380
f 380 384 381 377
f 385 389 390 386
f 386 390 391 387
f 387 391 392 388
f 388 392 389 385
f 393 397 398 394
f 394 398 399 395
f 395 399 400 396
f 396 400 397 393
f 401 405 406 402
f 402 406 407 403
f 403 407 408 404
f 404 408 405 401
f 409 413 414 410
f 410 414 415 411
f 411 415 416 412
f 412 416 413 409
f 417 421 422 418
f 418 422 423 419
f 419 423 424 420
f 420 424 421 417
f 425 429 430 426
f 426 430 431 427
f 427 431 432 428
f 428 432 429 425
f 433 437 438 434
f 434 438 439 435
f 435 439 440 436
f 436 440 437 433
f 441 445 446 442
f 442 446 447 443
f 443 447 448 444
f 444 448 445 441
f 449 453 454 450
f 450 454 455 451
f 451 455 456 452
f 452 456 453 449
f 457 461 462 458
f 458 462 463 459
f 459 463 464 460
f 460 464 461 457
f 465 469 470 466
f 466 470 471 467
f 467 471 472 468
f 468 472 469 465
f 473 477 478 474
f 474 478 479 475
f 475 479 480 476
f 476 480 477 473
f 481 485 486 482
f 482 486 487 483
f 483 487 488 484
f 484 488 485 481
f 489 493 494 490
f 490 494 495 491
f 491 495 496 492
f 492 496 493 489
f 497 501 502 498
f 498 502 503 499
f 499 503 504 500
f 500 504 501 497
f 505 509 510 506
f 506 510 511 507
f 507 511 512 508
f 508 512 509 505
f 513 517 518 514
f 514 518 519 515
f 515 519 520 516
f 516 520 517 513
f 521 525 526 522
f 522 526 527 523
f 523 527 528 524
f 524 528 525 521
f 529 533 534 530
f 530 534 535 531
f 531 535 536 532
f 532 536 533 529
f 537 541 542 538
f 538 542 543 539
f 539 543 544 540
f 540 544 541 537
f 545 549 550 546
f 546 550 551 547
f 547 551 552 548
f 548 552 549 545
f 553 557 558 554
f 554 558 559 555
f 555 559 560 556
f 556 560 557 553
f 561 565 566 562
f 562 566 567 563
f 563 567 568 564
f 564 568 565 561
f 569 573 574 570
f 570 574 575 571
f 571 575 576 572
f 572 576 573 569
f 577 581 582 578
f 578 582 583 579
f 579 583 584 580
f 580 584 581 577
f 585 589 590 586
f 586 590 591 587
f 587 591 592 588
f 588 592 589 585
f 593 597 598 594
f 594 598 599 595
f 595 599 600 596
f 596 600 597 593
f 601 605 606 602
f 602 606 607 603
f 603 607 608 604
f 604 608 605 601
f 609 613 614 610
f 610 614 615 611
f 611 615 616 612
f 612 616 613 609
f 617 621 622 618
f 618 622 623 619
f 619 623 624 620
f 620 624 621 617
f 625 629 630 626
f 626 630 631 627
f 627 631 632 628
f 628 632 629 625
f 633 637 638 634
f 634 638 639 635
f 635 639 640 636
f 636 640 637 633
f 641 645 646 642
f 642 646 647 643
f 643 647 648 644
f 644 648 645 641
f 649 653 654 650
f 650 654 655 651
f 651 655 656 652
f 652 656 653 649
f 657 661 662 658
f 658 662 663 659
f 659 663 664 660
f 660 664 661 657
f 665 669 670 666
f 666 670 671 667
f 667 671 672 668
f 668 672 669 665
f 673 677 678 674
f 674 678 679 675
f 675 679 680 676
f 676 680 677 673
f 681 685 686 682
f 682 686 687 683
f 683 687 688 684
f 684 688 685 681
f 689 693 694 690
f 690 694 695 691
f 691 695 696 692
f 692 696 693 689
f 697 701 702 698
f 698 702 703 699
f 699 703 704 700
f 700 704 701 697
f 705 709 710 706
f 706 710 711 707
f 707 711 712 708
f 708 712 709 705
f 713 717 718 714
f 714 718 719 715
f 715 719 720 716
f 716 720 717 713
f 721 725 726 722
f 722 726 727 723
f 723 727 728 724
f 724 728 725 721
f 729 733 734 730
f 730 734 735 731
f 731 735 736 732
f 732 736 733 729
f 737 741 742 738
f 738 742 743 739
f 739 743 744 740
f 740 744 741 737
f 745 749 750 746
f 746 750 751 747
f 747 751 752 748
f 748 752 749 745
f 753 757 758 754
f 754 758 759 755
f 755 759 760 756
f 756 760 757 753
f 761 765 766 762
f 762 766 767 763
f 763 767 768 764
f 764 768 765 761
f 769 773 774 770
f 770 774 775 771
f 771 775 776 772
f 772 776 773 769
f 777 781 782 778
f 778 782 783 779
f 779 783 784 780
f 780 784 781 777
f 785 789 790 786
f 786 790 791 787
f 787 791 792 788
f 788 792 789 785
f 793 797 798 794
f 794 798 799 795
f 795 799 800 796
f 796 800 797 793
f 801 805 806 802
f 802 806 807 803
f 803 807 808 804
f 804 808 805 801
f 809 813 814 810
f 810 814 815 811
f 811 815 816 812
f 812 816 813 809
f 817 821 822 818
f 818 822 823 819
f 819 823 824 820
f 820 824 821 817
f 825 829 830 826
f 826 830 831 827
f 827 831 832 828
f 828 832 829 825
f 833 837 838 834
f 834 838 839 835
f 835 839 840 836
f 836 840 837 833
f 841 845 846 842
f 842 846 847 843
f 843 847 848 844
f 844 848 845 841
f 849 853 854 850
f 850 854 855 851
f 851 855 856 852
f 852 856 853 849
f 857 861 862 858
f 858 862 863 859
f 859 863 864 860
f 860 864 861 857
f 865 869 870 866
f 866 870 871 867
f 867 871 872 868
f 868 872 869 865
f 873 877 878 874
f 874 878 879 875
f 875 879 880 876
f 876 880 877 873
o Viaduct
v -22.86 12.00 -22.99
v -12.97 12.00 -24.46
v -25.40 12.00 -39.99
v -15.48 12.00 -41.30
v -29.65 12.00 -77.34
v -19.68 12.00 -78.12
v -31.50 12.00 -119.86
v -21.51 12.00 -120.24
v -32.01 12.00 -135.72
v -22.01 12.00 -135.82
v -31.89 12.00 -145.98
v -21.89 12.00 -145.91
v -31.80 12.00 -183.37
v -21.80 12.00 -183.39
v -32.57 12.00 -284.59
v -22.57 12.00 -284.71
v -33.13 12.00 -322.33
v -23.13 12.00 -322.51
v -34.24 12.00 -375.68
v -24.24 12.00 -376.02
v -37.32 12.00 -440.86
v -27.33 12.00 -441.38
v -38.73 12.00 -466.13
v -28.74 12.00 -466.67
v -44.01 12.00 -567.40
v -34.03 12.00 -567.99
v -45.38 12.00 -587.88
v -35.42 12.00 -588.74
v -47.07 12.00 -603.70
v -37.14 12.00 -604.88
v -49.86 12.00 -625.09
v -39.97 12.00 -626.54
v -52.49 12.00 -641.14
v -42.60 12.00 -642.67
v -54.04 12.00 -651.83
v -44.19 12.00 -653.57
v -57.21 12.00 -667.07
v -47.43 12.00 -669.14
v -66.84 12.00 -711.73
v -57.06 12.00 -713.81
v -76.70 12.00 -758.69
v -66.95 12.00 -760.92
v -79.31 12.00 -769.26
v -69.61 12.00 -771.70
v -83.41 12.00 -785.31
v -73.72 12.00 -787.81
v -102.59 12.00 -859.03
v -92.94 12.00 -861.63
v -111.43 12.00 -890.57
v -101.78 12.00 -893.23
v -137.05 12.00 -985.10
v -127.37 12.00 -987.61
v -224.01 12.00 -1337.43
v -214.31 12.00 -1339.83
v -242.54 12.00 -1412.03
v -232.84 12.00 -1414.46
v -252.17 12.00 -1450.19
v -242.47 12.00 -1452.61
v -262.89 12.00 -1493.59
v -253.18 12.00 -1495.99
v -283.60 12.00 -1577.44
v -273.88 12.00 -1579.82
v -292.40 12.00 -1613.48
v -282.71 12.00 -1615.97
v -296.57 12.00 -1628.98
v -286.91 12.00 -1631.56
v -299.35 12.00 -1639.47
v -289.71 12.00 -1642.14
v -308.11 12.00 -1669.81
v -298.47 12.00 -1672.49
v -312.05 12.00 -1684.59
v -302.38 12.00 -1687.14
v -315.90 12.00 -1699.43
v -306.20 12.00 -1701.86
v -318.28 12.00 -1709.28
v -308.55 12.00 -1711.58
v -319.37 12.00 -1714.00
v -309.59 12.00 -1716.10
v -323.57 12.00 -1735.16
v -313.76 12.00 -1737.13
v -324.70 12.00 -1740.73
v -314.92 12.00 -1742.85
v -327.16 12.00 -1751.41
v -317.44 12.00 -1753.76
v -347.98 12.00 -1834.00
v -338.29 12.00 -1836.51
v -371.76 12.00 -1923.39
v -362.07 12.00 -1925.90
v -376.46 12.00 -1942.13
v -366.78 12.00 -1944.64
v -377.20 12.00 -1944.90
v -367.54 12.00 -1947.47
v -389.67 12.00 -1992.05
v -379.98 12.00 -1994.50
v -405.22 12.00 -2056.30
v -395.52 12.00 -2058.72
v -419.33 12.00 -2111.39
v -409.65 12.00 -2113.88
v -423.18 12.00 -2126.28
v -413.49 12.00 -2128.72
v -433.00 12.00 -2166.35
v -423.30 12.00 -2168.77
v -438.14 12.00 -2186.53
v -428.46 12.00 -2189.03
v -455.19 12.00 -2251.98
v -445.52 12.00 -2254.54
v -466.85 12.00 -2295.61
v -457.77 12.00 -2300.35
v -470.40 12.00 -2299.81
v -467.55 12.00 -2311.95
v -471.85 12.00 -2299.18
v -485.51 12.00 -2304.14
v -471.10 12.00 -2297.67
v -477.26 12.00 -2287.61
v -468.91 12.00 -2297.69
v -467.59 12.00 -2287.70
v -464.74 12.00 -2298.77
v -460.74 12.00 -2289.47
v -460.93 12.00 -2301.15
v -454.36 12.00 -2293.46
v -457.99 12.00 -2304.52
v -449.45 12.00 -2299.10
v -456.17 12.00 -2308.64
v -446.42 12.00 -2305.97
v -455.64 12.00 -2313.06
v -445.55 12.00 -2313.25
v -456.32 12.00 -2317.35
v -446.67 12.00 -2320.31
v -458.11 12.00 -2321.19
v -449.65 12.00 -2326.71
v -460.81 12.00 -2324.27
v -454.25 12.00 -2331.95
v -464.17 12.00 -2326.39
v -460.04 12.00 -2335.61
v -467.90 12.00 -2327.47
v -466.45 12.00 -2337.46
v -471.74 12.00 -2327.49
v -472.98 12.00 -2337.50
v -475.41 12.00 -2326.54
v -479.07 12.00 -2335.92
v -478.78 12.00 -2324.75
v -484.55 12.00 -2333.00
v -481.54 12.00 -2322.27
v -488.91 12.00 -2329.09
v -483.88 12.00 -2319.22
v -492.64 12.00 -2324.24
v -485.34 12.00 -2315.64
v -496.62 12.00 -2314.44
v -482.75 12.00 -2311.84
v -487.21 12.00 -2300.64
v -473.18 12.00 -2313.92
v -466.15 12.00 -2305.21
v -474.98 12.00 -2306.99
v -462.74 12.00 -2315.67
v -474.61 12.00 -2305.80
v -465.18 12.00 -2316.68
v -475.55 12.00 -2323.48
v -465.63 12.00 -2325.13
v -482.24 12.00 -2346.99
v -472.67 12.00 -2349.90
v -487.12 12.00 -2362.06
v -477.63 12.00 -2365.22
v -494.03 12.00 -2382.18
v -484.63 12.00 -2385.58
v -507.09 12.00 -2416.77
v -497.80 12.00 -2420.48
v -521.37 12.00 -2450.71
v -512.15 12.00 -2454.58
v -537.95 12.00 -2490.20
v -528.72 12.00 -2494.04
v -553.91 12.00 -2528.89
v -544.70 12.00 -2532.78
v -562.25 12.00 -2548.14
v -553.10 12.00 -2552.18
v -577.55 12.00 -2582.16
v -568.43 12.00 -2586.27
v -588.80 12.00 -2607.07
v -579.68 12.00 -2611.17
v -603.39 12.00 -2639.62
v -594.24 12.00 -2643.66
v -611.31 12.00 -2657.92
v -602.12 12.00 -2661.85
v -623.04 12.00 -2685.77
v -613.78 12.00 -2689.54
v -638.46 12.00 -2724.85
v -629.16 12.00 -2728.52
v -644.46 12.00 -2740.06
v -635.18 12.00 -2743.79
v -679.24 12.00 -2824.91
v -669.97 12.00 -2828.66
v -703.35 12.00 -2885.47
v -694.08 12.00 -2889.21
v -718.63 12.00 -2922.72
v -709.37 12.00 -2926.50
v -726.37 12.00 -2941.74
v -717.11 12.00 -2945.51
v -766.16 12.00 -3039.32
v -753.08 12.00 -3033.72
v -750.19 12.00 -3045.61
v -746.53 12.00 -3036.30
v -22.86 10.00 -22.99
v -12.97 10.00 -24.46
v -25.40 10.00 -39.99
v -15.48 10.00 -41.30
v -29.65 10.00 -77.34
v -19.68 10.00 -78.12
v -31.50 10.00 -119.86
v -21.51 10.00 -120.24
v -32.01 10.00 -135.72
v -22.01 10.00 -135.82
v -31.89 10.00 -145.98
v -21.89 10.00 -145.91
v -31.80 10.00 -183.37
v -21.80 10.00 -183.39
v -32.57 10.00 -284.59
v -22.57 10.00 -284.71
v -33.13 10.00 -322.33
v -23.13 10.00 -322.51
v -34.24 10.00 -375.68
v -24.24 10.00 -376.02
v -37.32 10.00 -440.86
v -27.33 10.00 -441.38
v -38.73 10.00 -466.13
v -28.74 10.00 -466.67
v -44.01 10.00 -567.40
v -34.03 10.00 -567.99
v -45.38 10.00 -587.88
v -35.42 10.00 -588.74
v -47.07 10.00 -603.70
v -37.14 10.00 -604.88
v -49.86 10.00 -625.09
v -39.97 10.00 -626.54
v -52.49 10.00 -641.14
v -42.60 10.00 -642.67
v -54.04 10.00 -651.83
v -44.19 10.00 -653.57
v -57.21 10.00 -667.07
v -47.43 10.00 -669.14
v -66.84 10.00 -711.73
v -57.06 10.00 -713.81
v -76.70 10.00 -758.69
v -66.95 10.00 -760.92
v -79.31 10.00 -769.26
v -69.61 10.00 -771.70
v -83.41 10.00 -785.31
v -73.72 10.00 -787.81
v -102.59 10.00 -859.03
v -92.94 10.00 -861.63
v -111.43 10.00 -890.57
v -101.78 10.00 -893.23
v -137.05 10.00 -985.10
v -127.37 10.00 -987.61
v -224.01 10.00 -1337.43
v -214.31 10.00 -1339.83
v -242.54 10.00 -1412.03
v -232.84 10.00 -1414.46
v -252.17 10.00 -1450.19
v -242.47 10.00 -1452.61
v -262.89 10.00 -1493.59
v -253.18 10.00 -1495.99
v -283.60 10.00 -1577.44
v -273.88 10.00 -1579.82
v -292.40 10.00 -1613.48
v -282.71 10.00 -1615.97
v -296.57 10.00 -1628.98
v -286.91 10.00 -1631.56
v -299.35 10.00 -1639.47
v -289.71 10.00 -1642.14
v -308.11 10.00 -1669.81
v -298.47 10.00 -1672.49
v -312.05 10.00 -1684.59
v -302.38 10.00 -1687.14
v -315.90 10.00 -1699.43
v -306.20 10.00 -1701.86
v -318.28 10.00 -1709.28
v -308.55 10.00 -1711.58
v -319.37 10.00 -1714.00
v -309.59 10.00 -1716.10
v -323.57 10.00 -1735.16
v -313.76 10.00 -1737.13
v -324.70 10.00 -1740.73
v -314.92 10.00 -1742.85
v -327.16 10.00 -1751.41
v -317.44 10.00 -1753.76
v -347.98 10.00 -1834.00
v -338.29 10.00 -1836.51
v -371.76 10.00 -1923.39
v -362.07 10.00 -1925.90
v -376.46 10.00 -1942.13
v -366.78 10.00 -1944.64
v -377.20 10.00 -1944.90
v -367.54 10.00 -1947.47
v -389.67 10.00 -1992.05
v -379.98 10.00 -1994.50
v -405.22 10.00 -2056.30
v -395.52 10.00 -2058.72
v -419.33 10.00 -2111.39
v -409.65 10.00 -2113.88
v -423.18 10.00 -2126.28
v -413.49 10.00 -2128.72
v -433.00 10.00 -2166.35
v -423.30 10.00 -2168.77
v -438.14 10.00 -2186.53
v -428.46 10.00 -2189.03
v -455.19 10.00 -2251.98
v -445.52 10.00 -2254.54
v -466.85 10.00 -2295.61
v -457.77 10.00 -2300.35
v -470.40 10.00 -2299.81
v -467.55 10.00 -2311.95
v -471.85 10.00 -2299.18
v -485.51 10.00 -2304.14
v -471.10 10.00 -2297.67
v -477.26 10.00 -2287.61
v -468.91 10.00 -2297.69
v -467.59 10.00 -2287.70
v -464.74 10.00 -2298.77
v -460.74 10.00 -2289.47
v -460.93 10.00 -2301.15
v -454.36 10.00 -2293.46
v -457.99 10.00 -2304.52
v -449.45 10.00 -2299.10
v -456.17 10.00 -2308.64
v -446.42 10.00 -2305.97
v -455.64 10.00 -2313.06
v -445.55 10.00 -2313.25
v -456.32 10.00 -2317.35
v -446.67 10.00 -2320.31
v -458.11 10.00 -2321.19
v -449.65 10.00 -2326.71
v -460.81 10.00 -2324.27
v -454.25 10.00 -2331.95
v -464.17 10.00 -2326.39
v -460.04 10.00 -2335.61
v -467.90 10.00 -2327.47
v -466.45 10.00 -2337.46
v -471.74 10.00 -2327.49
v -472.98 10.00 -2337.50
v -475.41 10.00 -2326.54
v -479.07 10.00 -2335.92
v -478.78 10.00 -2324.75
v -484.55 10.00 -2333.00
v -481.54 10.00 -2322.27
v -488.91 10.00 -2329.09
v -483.88 10.00 -2319.22
v -492.64 10.00 -2324.24
v -485.34 10.00 -2315.64
v -496.62 10.00 -2314.44
v -482.75 10.00 -2311.84
v -487.21 10.00 -2300.64
v -473.18 10.00 -2313.92
v -466.15 10.00 -2305.21
v -474.98 10.00 -2306.99
v -462.74 10.00 -2315.67
v -474.61 10.00 -2305.80
v -465.18 10.00 -2316.68
v -475.55 10.00 -2323.48
v -465.63 10.00 -2325.13
v -482.24 10.00 -2346.99
v -472.67 10.00 -2349.90
v -487.12 10.00 -2362.06
v -477.63 10.00 -2365.22
v -494.03 10.00 -2382.18
v -484.63 10.00 -2385.58
v -507.09 10.00 -2416.77
v -497.80 10.00 -2420.48
v -521.37 10.00 -2450.71
v -512.15 10.00 -2454.58
v -537.95 10.00 -2490.20
v -528.72 10.00 -2494.04
v -553.91 10.00 -2528.89
v -544.70 10.00 -2532.78
v -562.25 10.00 -2548.14
v -553.10 10.00 -2552.18
v -577.55 10.00 -2582.16
v -568.43 10.00 -2586.27
v -588.80 10.00 -2607.07
v -579.68 10.00 -2611.17
v -603.39 10.00 -2639.62
v -594.24 10.00 -2643.66
v -611.31 10.00 -2657.92
v -602.12 10.00 -2661.85
v -623.04 10.00 -2685.77
v -613.78 10.00 -2689.54
v -638.46 10.00 -2724.85
v -629.16 10.00 -2728.52
v -644.46 10.00 -2740.06
v -635.18 10.00 -2743.79
v -679.24 10.00 -2824.91
v -669.97 10.00 -2828.66
v -703.35 10.00 -2885.47
v -694.08 10.00 -2889.21
v -718.63 10.00 -2922.72
v -709.37 10.00 -2926.50
v -726.37 10.00 -2941.74
v -717.11 10.00 -2945.51
v -766.16 10.00 -3039.32
v -753.08 10.00 -3033.72
v -750.19 10.00 -3045.61
v -746.53 10.00 -3036.30
f 882 884 883 881
f 884 886 885 883
f 886 888 887 885
f 888 890 889 887
f 890 892 891 889
f 892 894 893 891
f 894 896 895 893
f 896 898 897 895
f 898 900 899 897
f 900 902 901 899
f 902 904 903 901
f 904 906 905 903
f 906 908 907 905
f 908 910 909 907
f 910 912 911 909
f 912 914 913 911
f 914 916 915 913
f 916 918 917 915
f 918 920 919 917
f 920 922 921 919
f 922 924 923 921
f 924 926 925 923
f 926 928 927 925
f 928 930 929 927
f 930 932 931 929
f 932 934 933 931
f 934 936 935 933
f 936 938 937 935
f 938 940 939 937
f 940 942 941 939
f 942 944 943 941
f 944 946 945 943
f 946 948 947 945
f 948 950 949 947
f 950 952 951 949
f 952 954 953 951
f 954 956 955 953
f 956 958 957 955
f 958 960 959 957
f 960 962 961 959
f 962 964 963 961
f 964 966 965 963
f 966 968 967 965
f 968 970 969 967
f 970 972 971 969
f 972 974 973 971
f 974 976 975 973
f 976 978 977 975
f 978 980 979 977
f 980 982 981 979
f 982 984 983 981
f 984 986 985 983
f 986 988 987 985
f 988 990 989 987
f 990 992 991 989
f 992 994 993 991
f 994 996 995 993
f 996 998 997 995
f 998 1000 999 997
f 1000 1002 1001 999
f 1002 1004 1003 1001
f 1004 1006 1005 1003
f 1006 1008 1007 1005
f 1008 1010 1009 1007
f 1010 1012 1011 1009
f 1012 1014 1013 1011
f 1014 1016 1015 1013
f 1016 1018 1017 1015
f 1018 1020 1019 1017
f 1020 1022 1021 1019
f 1022 1024 1023 1021
f 1024 1026 1025 1023
f 1026 1028 1027 1025
f 1028 1030 1029 1027
f 1030 1032 1031 1029
f 1032 1034 1033 1031
f 1034 1036 1035 1033
f 1036 1038 1037 1035
f 1038 1040 1039 1037
f 1040 1042 1041 1039
f 1042 1044 1043 1041
f 1044 1046 1045 1043
f 1046 1048 1047 1045
f 1048 1050 1049 1047
f 1050 1052 1051 1049
f 1052 1054 1053 1051
f 1054 1056 1055 1053
f 1056 1058 1057 1055
f 1058 1060 1059 1057
f 1060 1062 1061 1059
f 1062 1064 1063 1061
f 1064 1066 1065 1063
f 1066 1068 1067 1065
f 1068 1070 1069 1067
f 1070 1072 1071 1069
f 1072 1074 1073 1071
f 1074 1076 1075 1073
f 1076 1078 1077 1075
f 1078 1080 1079 1077
f 1081 1083 1084 1082
f 1083 1085 1086 1084
f 1085 1087 1088 1086
f 1087 1089 1090 1088
f 1089 1091 1092 1090
f 1091 1093 1094 1092
f 1093 1095 1096 1094
f 1095 1097 1098 1096
f 1097 1099 1100 1098
f 1099 1101 1102 1100
f 1101 1103 1104 1102
f 1103 1105 1106 1104
f 1105 1107 1108 1106
f 1107 1109 1110 1108
f 1109 1111 1112 1110
f 1111 1113 1114 1112
f 1113 1115 1116 1114
f 1115 1117 1118 1116
f 1117 1119 1120 1118
f 1119 1121 1122 1120
f 1121 1123 1124 1122
f 1123 1125 1126 1124
f 1125 1127 1128 1126
f 1127 1129 1130 1128
f 1129 1131 1132 1130
f 1131 1133 1134 1132
f 1133 1135 1136 1134
f 1135 1137 1138 1136
f 1137 1139 1140 1138
f 1139 1141 1142 1140
f 1141 1143 1144 1142
f 1143 1145 1146 1144
f 1145 1147 1148 1146
f 1147 1149 1150 1148
f 1149 1151 1152 1150
f 1151 1153 1154 1152
f 1153 1155 1156 1154
f 1155 1157 1158 1156
f 1157 1159 1160 1158
f 1159 1161 1162 1160
f 1161 1163 1164 1162
f 1163 1165 1166 1164
f 1165 1167 1168 1166
f 1167 1169 1170 1168
f 1169 1171 1172 1170
f 1171 1173 1174 1172
f 1173 1175 1176 1174
f 1175 1177 1178 1176
f 1177 1179 1180 1178
f 1179 1181 1182 1180
f 1181 1183 1184 1182
f 1183 1185 1186 1184
f 1185 1187 1188 1186
f 1187 1189 1190 1188
f 1189 1191 1192 1190
f 1191 1193 1194 1192
f 1193 1195 1196 1194
f 1195 1197 1198 1196
f 1197 1199 1200 1198
f 1199 1201 1202 1200
f 1201 1203 1204 1202
f 1203 1205 1206 1204
f 1205 1207 1208 1206
f 1207 1209 1210 1208
f 1209 1211 1212 1210
f 1211 1213 1214 1212
f 1213 1215 1216 1214
f 1215 1217 1218 1216
f 1217 1219 1220 1218
f 1219 1221 1222 1220
f 1221 1223 1224 1222
f 1223 1225 1226 1224
f 1225 1227 1228 1226
f 1227 1229 1230 1228
f 1229 1231 1232 1230
f 1231 1233 1234 1232
f 1233 1235 1236 1234
f 1235 1237 1238 1236
f 1237 1239 1240 1238
f 1239 1241 1242 1240
f 1241 1243 1244 1242
f 1243 1245 1246 1244
f 1245 1247 1248 1246
f 1247 1249 1250 1248
f 1249 1251 1252 1250
f 1251 1253 1254 1252
f 1253 1255 1256 1254
f 1255 1257 1258 1256
f 1257 1259 1260 1258
f 1259 1261 1262 1260
f 1261 1263 1264 1262
f 1263 1265 1266 1264
f 1265 1267 1268 1266
f 1267 1269 1270 1268
f 1269 1271 1272 1270
f 1271 1273 1274 1272
f 1273 1275 1276 1274
f 1275 1277 1278 1276
f 1277 1279 1280 1278
f 881 1081 1083 883
f 884 1084 1082 882
f 883 1083 1085 885
f 886 1086 1084 884
f 885 1085 1087 887
f 888 1088 1086 886
f 887 1087 1089 889
f 890 1090 1088 888
f 889 1089 1091 891
f 892 1092 1090 890
f 891 1091 1093 893
f 894 1094 1092 892
f 893 1093 1095 895
f 896 1096 1094 894
f 895 1095 1097 897
f 898 1098 1096 896
f 897 1097 1099 899
f 900 1100 1098 898
f 899 1099 1101 901
f 902 1102 1100 900
f 901 1101 1103 903
f 904 1104 1102 902
f 903 1103 1105 905
f 906 1106 1104 904
f 905 1105 1107 907
f 908 1108 1106 906
f 907 1107 1109 909
f 910 1110 1108 908
f 909 1109 1111 911
f 912 1112 1110 910
f 911 1111 1113 913
f 914 1114 1112 912
f 913 1113 1115 915
f 916 1116 1114 914
f 915 1115 1117 917
f 918 1118 1116 916
f 917 1117 1119 919
f 920 1120 1118 918
f 919 1119 1121 921
f 922 1122 1120 920
f 921 1121 1123 923
f 924 1124 1122 922
f 923 1123 1125 925
f 926 1126 1124 924
f 925 1125 1127 927
f 928 1128 1126 926
f 927 1127 1129 929
f 930 1130 1128 928
f 929 1129 1131 931
f 932 1132 1130 930
f 931 1131 1133 933
f 934 1134 1132 932
f 933 1133 1135 935
f 936 1136 1134 934
f 935 1135 1137 937
f 938 1138 1136 936
f 937 1137 1139 939
f 940 1140 1138 938
f 939 1139 1141 941
f 942 1142 1140 940
f 941 1141 1143 943
f 944 1144 1142 942
f 943 1143 1145 945
f 946 1146 1144 944
f 945 1145 1147 947
f 948 1148 1146 946
f 947 1147 1149 949
f 950 1150 1148 948
f 949 1149 1151 951
f 952 1152 1150 950
f 951 1151 1153 953
f 954 1154 1152 952
f 953 1153 1155 955
f 956 1156 1154 954
f 955 1155 1157 957
f 958 1158 1156 956
f 957 1157 1159 959
f 960 1160 1158 958
f 959 1159 1161 961
f 962 1162 1160 960
f 961 1161 1163 963
f 964 1164 1162 962
f 963 1163 1165 965
f 966 1166 1164 964
f 965 1165 1167 967
f 968 1168 1166 966
f 967 1167 1169 969
f 970 1170 1168 968
f 969 1169 1171 971
f 972 1172 1170 970
f 971 1171 1173 973
f 974 1174 1172 972
f 973 1173 1175 975
f 976 1176 1174 974
f 975 1175 1177 977
f 978 1178 1176 976
f 977 1177 1179 979
f 980 1180 1178 978
f 979 1179 1181 981
f 982 1182 1180 980
f 981 1181 1183 983
f 984 1184 1182 982
f 983 1183 1185 985
f 986 1186 1184 984
f 985 1185 1187 987
f 988 1188 1186 986
f 987 1187 1189 989
f 990 1190 1188 988
f 989 1189 1191 991
f 992 1192 1190 990
f 991 1191 1193 993
f 994 1194 1192 992
f 993 1193 1195 995
f 996 1196 1194 994
f 995 1195 1197 997
f 998 1198 1196 996
f 997 1197 1199 999
f 1000 1200 1198 998
f 999 1199 1201 1001
f 1002 1202 1200 1000
f 1001 1201 1203 1003
f 1004 1204 1202 1002
f 1003 1203 1205 1005
f 1006 1206 1204 1004
f 1005 1205 1207 1007
f 1008 1208 1206 1006
f 1007 1207 1209 1009
f 1010 1210 1208 1008
f 1009 1209 1211 1011
f 1012 1212 1210 1010
f 1011 1211 1213 1013
f 1014 1214 1212 1012
f 1013 1213 1215 1015
f 1016 1216 1214 1014
f 1015 1215 1217 1017
f 1018 1218 1216 1016
f 1017 1217 1219 1019
f 1020 1220 1218 1018
f 1019 1219 1221 1021
f 1022 1222 1220 1020
f 1021 1221 1223 1023
f 1024 1224 1222 1022
f 1023 1223 1225 1025
f 1026 1226 1224 1024
f 1025 1225 1227 1027
f 1028 1228 1226 1026
f 1027 1227 1229 1029
f 1030 1230 1228 1028
f 1029 1229 1231 1031
f 1032 1232 1230 1030
f 1031 1231 1233 1033
f 1034 1234 1232 1032
f 1033 1233 1235 1035
f 1036 1236 1234 1034
f 1035 1235 1237 1037
f 1038 1238 1236 1036
f 1037 1237 1239 1039
f 1040 1240 1238 1038
f 1039 1239 1241 1041
f 1042 1242 1240 1040
f 1041 1241 1243 1043
f 1044 1244 1242 1042
f 1043 1243 1245 1045
f 1046 1246 1244 1044
f 1045 1245 1247 1047
f 1048 1248 1246 1046
f 1047 1247 1249 1049
f 1050 1250 1248 1048
f 1049 1249 1251 1051
f 1052 1252 1250 1050
f 1051 1251 1253 1053
f 1054 1254 1252 1052
f 1053 1253 1255 1055
f 1056 1256 1254 1054
f 1055 1255 1257 1057
f 1058 1258 1256 1056
f 1057 1257 1259 1059
f 1060 1260 1258 1058
f 1059 1259 1261 1061
f 1062 1262 1260 1060
f 1061 1261 1263 1063
f 1064 1264 1262 1062
f 1063 1263 1265 1065
f 1066 1266 1264 1064
f 1065 1265 1267 1067
f 1068 1268 1266 1066
f 1067 1267 1269 1069
f 1070 1270 1268 1068
f 1069 1269 1271 1071
f 1072 1272 1270 1070
f 1071 1271 1273 1073
f 1074 1274 1272 1072
f 1073 1273 1275 1075
f 1076 1276 1274 1074
f 1075 1275 1277 1077
f 1078 1278 1276 1076
f 1077 1277 1279 1079
f 1080 1280 1278 1078
